<svg width="28" height="28" viewBox="0 0 28 28" fill="none" xmlns="http://www.w3.org/2000/svg">
<path fill-rule="evenodd" clip-rule="evenodd" d="M20.5775 8.29483V8.29483C20.1423 8.29483 19.748 8.044 19.5625 7.652C19.2276 6.94266 18.8018 6.03616 18.5498 5.54266C18.1776 4.80883 17.5745 4.38183 16.7391 4.376C16.7251 4.37483 11.2745 4.37483 11.2605 4.376C10.4251 4.38183 9.82313 4.80883 9.4498 5.54266C9.19896 6.03616 8.77313 6.94266 8.4383 7.652C8.2528 8.044 7.8573 8.29483 7.4233 8.29483V8.29483C5.09463 8.29483 3.20813 10.1813 3.20813 12.5088V19.4342C3.20813 21.7605 5.09463 23.6482 7.4233 23.6482H20.5775C22.905 23.6482 24.7915 21.7605 24.7915 19.4342V12.5088C24.7915 10.1813 22.905 8.29483 20.5775 8.29483Z" stroke="white" stroke-width="1.5" stroke-linecap="round" stroke-linejoin="round"/>
<path fill-rule="evenodd" clip-rule="evenodd" d="M10.2916 15.5568C10.2905 17.602 11.96 19.275 14.0016 19.2738C16.0398 19.2715 17.7046 17.6055 17.7081 15.565C17.7116 13.5163 16.048 11.8468 14.004 11.8445C11.9483 11.8422 10.2753 13.5397 10.2916 15.5568Z" stroke="white" stroke-width="1.5" stroke-linecap="round" stroke-linejoin="round"/>
<path d="M19.7197 12.8276C19.607 12.816 19.4956 12.7866 19.3709 12.7364C19.2322 12.6748 19.1122 12.5964 18.9961 12.4785C18.7875 12.2567 18.6667 11.9665 18.6667 11.6672C18.6667 11.5083 18.6993 11.3507 18.7627 11.2079C18.8263 11.0633 18.9017 10.9413 19.038 10.8086C19.1416 10.7184 19.2478 10.6458 19.3929 10.5818C19.8233 10.4113 20.3352 10.5132 20.6551 10.833C20.751 10.9275 20.8318 11.0415 20.8766 11.1376L20.9031 11.2058C20.9676 11.3507 21.0001 11.5083 21.0001 11.6672C21.0001 11.9726 20.8809 12.255 20.6596 12.4901C20.4683 12.6826 20.2171 12.801 19.9492 12.8276L19.8334 12.8333L19.7197 12.8276Z" fill="white"/>
</svg>
