<svg width="29" height="28" viewBox="0 0 29 28" fill="none" xmlns="http://www.w3.org/2000/svg">
<path d="M27.625 14.2992C27.625 13.4155 27.5519 12.5271 27.396 11.6577H14.8871V16.6636H22.0504C21.7531 18.2781 20.798 19.7063 19.3995 20.6139V23.862H23.673C26.1826 21.5978 27.625 18.2542 27.625 14.2992Z" fill="#4285F4"/>
<path d="M14.8877 27C18.4644 27 21.4807 25.8488 23.6784 23.8618L19.4049 20.6137C18.2159 21.4066 16.6809 21.8556 14.8925 21.8556C11.4328 21.8556 8.49924 19.5676 7.44669 16.4915H3.03668V19.8399C5.28798 24.2296 9.87341 27 14.8877 27Z" fill="#34A853"/>
<path d="M7.44085 16.4915C6.88533 14.877 6.88533 13.1288 7.44085 11.5143V8.16586H3.03571C1.15476 11.8391 1.15476 16.1667 3.03571 19.8399L7.44085 16.4915Z" fill="#FBBC04"/>
<path d="M14.8877 6.14529C16.7784 6.11663 18.6057 6.81402 19.975 8.09415L23.7613 4.38272C21.3638 2.17592 18.1818 0.962663 14.8877 1.00088C9.87341 1.00088 5.28798 3.77131 3.03668 8.1658L7.44182 11.5142C8.4895 8.43329 11.4279 6.14529 14.8877 6.14529Z" fill="#EA4335"/>
</svg>
