<svg width="100" height="40" viewBox="0 0 100 40" fill="none" xmlns="http://www.w3.org/2000/svg">
<rect x="4" y="10" width="20" height="20" rx="2" fill="#5B2AE7"/>
<line x1="9.5" y1="18.5" x2="13.5" y2="18.5" stroke="white" stroke-width="3" stroke-linecap="round"/>
<line x1="9.5" y1="23.5" x2="15.5" y2="23.5" stroke="white" stroke-width="3" stroke-linecap="round"/>
<path d="M32 23.1521C32.4956 23.1359 32.9095 23.0629 33.2418 22.9331C33.5741 22.7978 33.8472 22.568 34.0612 22.2434C34.3372 21.8323 34.5118 21.24 34.585 20.4665C34.6639 19.693 34.7314 18.2028 34.7878 15.9959L34.8384 14.1785H47.1383V25.8134H43.6241V16.8398H38.2598C38.1809 19.1494 38.0401 20.8181 37.8374 21.8458C37.6403 22.8682 37.2686 23.7147 36.7223 24.3854C36.2379 24.9642 35.6494 25.378 34.9567 25.6268C34.2696 25.8756 33.377 25.9919 32.2788 25.9757L32 23.1521Z" fill="#5B2AE7"/>
<path d="M57.3939 26C54.9271 26 52.9926 25.4672 51.5903 24.4016C50.188 23.3306 49.4868 21.8675 49.4868 20.0122C49.4868 18.1406 50.1851 16.6721 51.5818 15.6065C52.9842 14.5355 54.9215 14 57.3939 14C59.855 14 61.7839 14.5355 63.1806 15.6065C64.5829 16.6721 65.2841 18.1406 65.2841 20.0122C65.2841 21.8621 64.5829 23.3225 63.1806 24.3935C61.7839 25.4645 59.855 26 57.3939 26ZM57.3939 23.3387C60.2548 23.3387 61.6853 22.2299 61.6853 20.0122C61.6853 17.7782 60.2548 16.6613 57.3939 16.6613C54.5216 16.6613 53.0855 17.7782 53.0855 20.0122C53.0855 22.2299 54.5216 23.3387 57.3939 23.3387Z" fill="#5B2AE7"/>
<path d="M67.6325 25.8134V14.1785H79.1045V16.8398H71.1468V25.8134H67.6325Z" fill="#5B2AE7"/>
<path d="M88.1098 26C85.6431 26 83.7086 25.4672 82.3062 24.4016C80.9039 23.3306 80.2027 21.8675 80.2027 20.0122C80.2027 18.1406 80.9011 16.6721 82.2978 15.6065C83.7001 14.5355 85.6375 14 88.1098 14C90.5709 14 92.4998 14.5355 93.8965 15.6065C95.2988 16.6721 96 18.1406 96 20.0122C96 21.8621 95.2988 23.3225 93.8965 24.3935C92.4998 25.4645 90.5709 26 88.1098 26ZM88.1098 23.3387C90.9708 23.3387 92.4013 22.2299 92.4013 20.0122C92.4013 17.7782 90.9708 16.6613 88.1098 16.6613C85.2376 16.6613 83.8015 17.7782 83.8015 20.0122C83.8015 22.2299 85.2376 23.3387 88.1098 23.3387Z" fill="#5B2AE7"/>
</svg>
