<svg width="29" height="28" viewBox="0 0 29 28" fill="none" xmlns="http://www.w3.org/2000/svg">
<path fill-rule="evenodd" clip-rule="evenodd" d="M17.7673 7.71083C17.7673 6.17863 16.5262 4.93249 15.0002 4.93249C13.4756 4.93249 12.233 6.17863 12.233 7.71083C12.233 9.24152 13.4756 10.4879 15.0002 10.4879C16.5262 10.4879 17.7673 9.24152 17.7673 7.71083ZM21.6833 7.71083C21.6833 11.4101 18.6866 14.4189 15.0002 14.4189C11.3145 14.4189 8.31702 11.4101 8.31702 7.71083C8.31702 4.00992 11.3145 1 15.0002 1C18.6866 1 21.6833 4.00992 21.6833 7.71083ZM21.585 18.279C20.3767 19.0412 19.0646 19.5816 17.704 19.8929H17.704L21.4404 23.6444C22.2058 24.4112 22.2058 25.6566 21.4404 26.4242C20.6758 27.1919 19.4364 27.1919 18.6725 26.4242L14.9993 22.7379L11.3294 26.4242C10.9467 26.8078 10.4453 26.9999 9.94383 26.9999C9.44321 26.9999 8.94263 26.8077 8.55986 26.4242C7.79519 25.6566 7.79519 24.4121 8.55909 23.6444L12.2955 19.8929C10.9349 19.5816 9.62278 19.0405 8.41462 18.279C7.50001 17.7004 7.22509 16.4872 7.80143 15.5682C8.37639 14.6479 9.58451 14.3711 10.5008 14.9498C13.2366 16.6778 16.7614 16.6786 19.4988 14.9498C20.4149 14.3711 21.6232 14.6479 22.1988 15.5682C22.7751 16.4865 22.4994 17.7004 21.585 18.279Z" fill="#EE8208"/>
</svg>
