<svg width="20" height="20" viewBox="0 0 20 20" fill="none" xmlns="http://www.w3.org/2000/svg">
<path fill-rule="evenodd" clip-rule="evenodd" d="M11.0001 5C11.0001 4.44772 10.5524 4 10.0001 4C9.44781 4 9.00009 4.44771 9.00009 5V8.99998L5.00012 8.99997C4.44784 8.99997 4.00012 9.44768 4.00012 9.99997C4.00012 10.5523 4.44783 11 5.00012 11L9.00009 11V15C9.00009 15.5523 9.44781 16 10.0001 16C10.5524 16 11.0001 15.5523 11.0001 15V11L15.0001 11C15.5524 11 16.0001 10.5523 16.0001 10C16.0001 9.44772 15.5524 9 15.0001 9L11.0001 8.99999V5Z" fill="#007AFF"/>
</svg>
