<svg width="28" height="28" viewBox="0 0 28 28" fill="none" xmlns="http://www.w3.org/2000/svg">
<path fill-rule="evenodd" clip-rule="evenodd" d="M9.41497 8.17488C9.41497 5.6336 11.4751 3.57349 14.0164 3.57349C16.5576 3.57349 18.6178 5.6336 18.6178 8.17488C18.6178 10.7162 16.5576 12.7763 14.0164 12.7763C11.4751 12.7763 9.41497 10.7162 9.41497 8.17488ZM14.0164 2.07349C10.6467 2.07349 7.91497 4.80517 7.91497 8.17488C7.91497 11.5446 10.6467 14.2763 14.0164 14.2763C17.3861 14.2763 20.1178 11.5446 20.1178 8.17488C20.1178 4.80517 17.3861 2.07349 14.0164 2.07349ZM11.8035 17.6896C13.5008 17.5348 15.2078 17.5348 16.9051 17.6896L16.9051 17.6897L16.9188 17.6907C17.906 17.7626 18.8892 17.861 19.7259 18.1536C20.5416 18.4389 21.1519 18.8849 21.4905 19.6246C21.5643 19.7857 21.8182 20.5139 22.063 21.2965C22.1819 21.6767 22.2923 22.0491 22.3709 22.3454C22.4104 22.4943 22.4398 22.6161 22.4582 22.7064C22.4699 22.7636 22.4737 22.792 22.4748 22.7991C22.475 22.8573 22.4819 22.9153 22.4955 22.972C22.5623 23.2499 22.4984 23.5026 22.2029 23.7951C21.8778 24.1171 21.3097 24.4359 20.4987 24.7118C18.89 25.259 16.5999 25.5468 14.2654 25.5468C11.9309 25.5468 9.64069 25.259 8.03186 24.7118C7.22081 24.4359 6.65257 24.1171 6.32729 23.7951C6.0317 23.5024 5.96774 23.2497 6.03442 22.9718C6.04707 22.919 6.05396 22.8651 6.05498 22.8109L6.05508 22.8123C6.05524 22.8123 6.05561 22.81 6.05639 22.805C6.05854 22.7914 6.06381 22.7581 6.07642 22.6989C6.09685 22.6028 6.12812 22.4761 6.16899 22.324C6.25042 22.0209 6.36258 21.6444 6.48198 21.2634C6.72653 20.483 6.97291 19.7752 7.03778 19.6321C7.39475 18.8951 8.03538 18.4446 8.89001 18.1563C9.76395 17.8615 10.7829 17.7632 11.7892 17.6908L11.8035 17.6896ZM11.6744 16.1952C13.4577 16.0329 15.2512 16.0329 17.0345 16.1952C18.0123 16.2665 19.1767 16.3725 20.221 16.7377C21.2888 17.1111 22.2949 17.7783 22.8544 19.0002C22.9753 19.2642 23.2571 20.0897 23.4946 20.8487C23.6168 21.2393 23.7342 21.6348 23.8207 21.9607C23.8638 22.123 23.9013 22.2759 23.9279 22.4061C23.9429 22.4796 23.9641 22.5888 23.972 22.7019C24.1479 23.5566 23.8288 24.2962 23.2584 24.861C22.6999 25.414 21.8857 25.8244 20.9817 26.1319C19.1606 26.7513 16.6908 27.0468 14.2654 27.0468C11.84 27.0468 9.37011 26.7513 7.54884 26.1319C6.64485 25.8244 5.83052 25.414 5.27197 24.8611C4.69945 24.2943 4.37995 23.5515 4.55986 22.6928C4.56937 22.5822 4.59138 22.4707 4.60924 22.3868C4.63739 22.2544 4.6761 22.0995 4.72038 21.9347C4.80924 21.604 4.92806 21.2059 5.05062 20.8148C5.28763 20.0585 5.56672 19.2386 5.679 18.9966L5.68348 18.987L5.68354 18.987C6.27198 17.7648 7.31644 17.1041 8.41053 16.735C9.48493 16.3725 10.6784 16.2669 11.6744 16.1952Z" fill="#1A1C27"/>
</svg>
