<svg width="29" height="28" viewBox="0 0 29 28" fill="none" xmlns="http://www.w3.org/2000/svg">
<path fill-rule="evenodd" clip-rule="evenodd" d="M22.7234 13.3548C22.7234 13.3548 26.1489 8.59287 26.4902 7.02797C26.6028 6.46968 26.3537 6.15585 25.7632 6.15585H22.7917C22.1113 6.15585 21.8611 6.44727 21.6574 6.87212C21.6574 6.87212 20.0497 10.2453 18.0954 12.3717C17.4671 13.0581 17.1486 13.2652 16.8019 13.2652C16.5224 13.2652 16.3935 13.0357 16.3935 12.4155V6.98313C16.3935 6.2231 16.3025 6 15.6677 6H10.9032C10.5402 6 10.3138 6.20816 10.3138 6.4921C10.3138 7.2073 11.4253 7.36956 11.4253 9.30807V13.31C11.4253 14.1149 11.3798 14.4276 10.9942 14.4276C9.97258 14.4276 7.54592 10.9626 6.18417 7.02797C5.91225 6.2231 5.6165 6 4.84517 6H1.87358C1.44242 6 1.125 6.29035 1.125 6.7152C1.125 7.49765 2.0545 11.1196 5.7075 15.9701C8.158 19.2344 11.3798 21 14.2832 21C16.0533 21 16.4845 20.7096 16.4845 19.972V17.4678C16.4845 16.8422 16.7337 16.5743 17.0966 16.5743C17.505 16.5743 18.2265 16.7035 19.91 18.3399C21.9066 20.2175 22.0431 21 23.1318 21H26.4674C26.8076 21 27.125 20.8442 27.125 20.2848C27.125 19.5472 26.1489 18.2278 24.6517 16.6629C24.0397 15.8591 23.0408 14.987 22.7234 14.5845C22.2695 14.1149 22.406 13.8469 22.7234 13.3548Z" fill="#4D75A3"/>
</svg>
